<svg width="23" height="20" viewBox="0 0 23 20" fill="none" xmlns="http://www.w3.org/2000/svg">
<path d="M14.4994 18.8241L22.2483 10.9909C22.9581 10.2691 22.9581 9.09736 22.2483 8.3779L14.4994 0.540072C13.7836 -0.181801 12.6251 -0.178179 11.9093 0.540072C11.2007 1.26315 11.2007 2.43004 11.9093 3.15311L16.4426 7.73478L1.90046 7.73478C0.849952 7.73478 3.60496e-05 8.59935 3.60496e-05 9.66947C3.60496e-05 10.7384 0.849952 11.6042 1.90046 11.6042L16.4699 11.6042L11.9093 16.21C11.2007 16.9318 11.2007 18.0999 11.9093 18.8218C12.6239 19.5449 13.7824 19.5461 14.4994 18.8242V18.8241Z" fill="white"/>
</svg>
