<svg width="168" height="280" viewBox="0 0 168 280" fill="none" xmlns="http://www.w3.org/2000/svg">
<path fill-rule="evenodd" clip-rule="evenodd" d="M0 -10H168V181H0V-10Z" fill="#4AF6CD"/>
<path d="M60.4 145.72C60.4 142.6 60.84 139.9 61.72 137.62C62.6 135.3 63.94 133.2 65.74 131.32L71.08 135.88C68.76 138.72 67.6 141.76 67.6 145C67.6 146.72 67.96 148.08 68.68 149.08C69.36 150.08 70.36 150.58 71.68 150.58C72.6 150.58 73.36 150.36 73.96 149.92C74.52 149.48 75.06 148.7 75.58 147.58C76.1 146.46 76.72 144.78 77.44 142.54C78.8 138.3 80.48 135.18 82.48 133.18C84.44 131.18 87.24 130.18 90.88 130.18C93.48 130.18 95.78 130.84 97.78 132.16C99.74 133.48 101.28 135.38 102.4 137.86C103.48 140.34 104.02 143.28 104.02 146.68C104.02 150.08 103.48 153.1 102.4 155.74C101.32 158.34 99.88 160.58 98.08 162.46L92.62 157.48C93.98 155.88 95 154.24 95.68 152.56C96.36 150.84 96.7 148.98 96.7 146.98C96.7 144.94 96.26 143.34 95.38 142.18C94.46 140.98 93.2 140.38 91.6 140.38C90.56 140.38 89.7 140.6 89.02 141.04C88.3 141.48 87.66 142.24 87.1 143.32C86.54 144.4 85.94 145.96 85.3 148C83.9 152.6 82.18 155.88 80.14 157.84C78.1 159.76 75.52 160.72 72.4 160.72C70 160.72 67.9 160.08 66.1 158.8C64.26 157.52 62.86 155.74 61.9 153.46C60.9 151.18 60.4 148.6 60.4 145.72ZM89.2 92.9041C92.04 92.9041 94.58 93.5241 96.82 94.7641C99.06 95.9641 100.82 97.7841 102.1 100.224C103.38 102.664 104.02 105.644 104.02 109.164C104.02 114.444 102.68 118.464 100 121.224C97.32 123.984 93.72 125.364 89.2 125.364H61.42V115.524H88.78C91.46 115.524 93.46 115.024 94.78 114.024C96.06 112.984 96.7 111.364 96.7 109.164C96.7 106.924 96.06 105.304 94.78 104.304C93.46 103.264 91.46 102.744 88.78 102.744H61.42V92.9041H89.2ZM87.1 72.002V75.842H103V85.682H61.42V72.062C61.42 66.382 62.46 62.122 64.54 59.282C66.62 56.402 69.8 54.962 74.08 54.962C76.76 54.962 79 55.602 80.8 56.882C82.56 58.162 84.06 60.182 85.3 62.942L103 52.382V63.482L87.1 72.002ZM80.32 75.842V71.702C80.32 69.502 79.82 67.862 78.82 66.782C77.82 65.662 76.24 65.102 74.08 65.102C72.08 65.102 70.62 65.702 69.7 66.902C68.78 68.062 68.32 69.862 68.32 72.302V75.842H80.32ZM103 48.6508H61.42V23.8708L68.44 24.8908V38.8108H79.48V26.6908H86.5V38.8108H103V48.6508Z" fill="white"/>
<path d="M60.4 258.1C60.4 252.74 62.1 248.12 65.5 244.24L70.72 249.22C69.6 250.7 68.8 252.08 68.32 253.36C67.8 254.6 67.54 256.04 67.54 257.68C67.54 260.76 68.76 263.22 71.2 265.06C73.6 266.9 77.26 267.82 82.18 267.82C87.5 267.82 91.28 267.12 93.52 265.72C95.72 264.32 96.82 262.14 96.82 259.18C96.82 257.1 96.36 255.22 95.44 253.54H86.02V258.94L79.06 259.9V244H99.64C101.04 246.16 102.12 248.54 102.88 251.14C103.64 253.74 104.02 256.34 104.02 258.94C104.02 265.26 102.18 270.02 98.5 273.22C94.78 276.42 89.34 278.02 82.18 278.02C77.62 278.02 73.7 277.16 70.42 275.44C67.14 273.68 64.66 271.3 62.98 268.3C61.26 265.26 60.4 261.86 60.4 258.1ZM60.4 220.628C60.4 214.708 62.3 210.108 66.1 206.828C69.9 203.508 75.26 201.848 82.18 201.848C86.7 201.848 90.6 202.608 93.88 204.128C97.16 205.608 99.68 207.768 101.44 210.608C103.16 213.408 104.02 216.748 104.02 220.628C104.02 224.508 103.16 227.848 101.44 230.648C99.72 233.448 97.24 235.608 94 237.128C90.72 238.608 86.78 239.348 82.18 239.348C77.7 239.348 73.82 238.608 70.54 237.128C67.26 235.608 64.76 233.448 63.04 230.648C61.28 227.848 60.4 224.508 60.4 220.628ZM67.6 220.628C67.6 223.468 68.76 225.588 71.08 226.988C73.36 228.348 77.06 229.028 82.18 229.028C87.3 229.028 91.02 228.328 93.34 226.928C95.66 225.528 96.82 223.428 96.82 220.628C96.82 217.748 95.68 215.628 93.4 214.268C91.08 212.868 87.34 212.168 82.18 212.168C77.02 212.168 73.3 212.868 71.02 214.268C68.74 215.668 67.6 217.788 67.6 220.628Z" fill="white"/>
<rect x="83" y="191" width="20" height="1" transform="rotate(-90 83 191)" fill="white"/>
</svg>
